<?xml version="1.0" encoding="utf-8"?>
<svg id="visual" viewBox="0 0 900 600" width="900" height="600" xmlns="http://www.w3.org/2000/svg" version="1.1">
  <path d="M0 501L25 498.5C50 496 100 491 150 491.7C200 492.3 250 498.7 300 500.2C350 501.7 400 498.3 450 494C500 489.7 550 484.3 600 477.7C650 471 700 463 750 458.7C800 454.3 850 453.7 875 453.3L900 453L900 601L875 601C850 601 800 601 750 601C700 601 650 601 600 601C550 601 500 601 450 601C400 601 350 601 300 601C250 601 200 601 150 601C100 601 50 601 25 601L0 601Z" fill="#f6d7b0"/>
  <path d="M0 503L25 502.7C50 502.3 100 501.7 150 507.5C200 513.3 250 525.7 300 532.5C350 539.3 400 540.7 450 543C500 545.3 550 548.7 600 548C650 547.3 700 542.7 750 534.5C800 526.3 850 514.7 875 508.8L900 503L900 601L875 601C850 601 800 601 750 601C700 601 650 601 600 601C550 601 500 601 450 601C400 601 350 601 300 601C250 601 200 601 150 601C100 601 50 601 25 601L0 601Z" fill="#c7a374"/>
  <path d="M0 574L25 574.5C50 575 100 576 150 576.7C200 577.3 250 577.7 300 573C350 568.3 400 558.7 450 558.7C500 558.7 550 568.3 600 563.7C650 559 700 540 750 538.2C800 536.3 850 551.7 875 559.3L900 567L900 601L875 601C850 601 800 601 750 601C700 601 650 601 600 601C550 601 500 601 450 601C400 601 350 601 300 601C250 601 200 601 150 601C100 601 50 601 25 601L0 601Z" fill="#99713c"/>
</svg>