<?xml version="1.0" encoding="utf-8"?>
<svg id="visual" viewBox="0 0 960 540" width="960" height="540" xmlns="http://www.w3.org/2000/svg" version="1.1">
  <path d="M0 165L10.7 172.7C21.3 180.3 42.7 195.7 64 199.7C85.3 203.7 106.7 196.3 128 194.2C149.3 192 170.7 195 192 192.7C213.3 190.3 234.7 182.7 256 182C277.3 181.3 298.7 187.7 320 190.3C341.3 193 362.7 192 384 183.2C405.3 174.3 426.7 157.7 448 150.3C469.3 143 490.7 145 512 146.2C533.3 147.3 554.7 147.7 576 149.8C597.3 152 618.7 156 640 157.2C661.3 158.3 682.7 156.7 704 160C725.3 163.3 746.7 171.7 768 175.7C789.3 179.7 810.7 179.3 832 178.5C853.3 177.7 874.7 176.3 896 180.3C917.3 184.3 938.7 193.7 949.3 198.3L960 203L960 0L949.3 0C938.7 0 917.3 0 896 0C874.7 0 853.3 0 832 0C810.7 0 789.3 0 768 0C746.7 0 725.3 0 704 0C682.7 0 661.3 0 640 0C618.7 0 597.3 0 576 0C554.7 0 533.3 0 512 0C490.7 0 469.3 0 448 0C426.7 0 405.3 0 384 0C362.7 0 341.3 0 320 0C298.7 0 277.3 0 256 0C234.7 0 213.3 0 192 0C170.7 0 149.3 0 128 0C106.7 0 85.3 0 64 0C42.7 0 21.3 0 10.7 0L0 0Z" fill="#04192e"/>
  <path d="M0 166L10.7 164C21.3 162 42.7 158 64 149.8C85.3 141.7 106.7 129.3 128 126C149.3 122.7 170.7 128.3 192 136.5C213.3 144.7 234.7 155.3 256 159C277.3 162.7 298.7 159.3 320 159.2C341.3 159 362.7 162 384 156.7C405.3 151.3 426.7 137.7 448 130.7C469.3 123.7 490.7 123.3 512 126.7C533.3 130 554.7 137 576 141.7C597.3 146.3 618.7 148.7 640 148.5C661.3 148.3 682.7 145.7 704 138.7C725.3 131.7 746.7 120.3 768 114.8C789.3 109.3 810.7 109.7 832 118.3C853.3 127 874.7 144 896 143.3C917.3 142.7 938.7 124.3 949.3 115.2L960 106L960 0L949.3 0C938.7 0 917.3 0 896 0C874.7 0 853.3 0 832 0C810.7 0 789.3 0 768 0C746.7 0 725.3 0 704 0C682.7 0 661.3 0 640 0C618.7 0 597.3 0 576 0C554.7 0 533.3 0 512 0C490.7 0 469.3 0 448 0C426.7 0 405.3 0 384 0C362.7 0 341.3 0 320 0C298.7 0 277.3 0 256 0C234.7 0 213.3 0 192 0C170.7 0 149.3 0 128 0C106.7 0 85.3 0 64 0C42.7 0 21.3 0 10.7 0L0 0Z" fill="#123c63"/>
  <path d="M0 73L10.7 75.2C21.3 77.3 42.7 81.7 64 80.8C85.3 80 106.7 74 128 74.5C149.3 75 170.7 82 192 82.3C213.3 82.7 234.7 76.3 256 77.5C277.3 78.7 298.7 87.3 320 90.5C341.3 93.7 362.7 91.3 384 91.2C405.3 91 426.7 93 448 89.7C469.3 86.3 490.7 77.7 512 80.5C533.3 83.3 554.7 97.7 576 99.7C597.3 101.7 618.7 91.3 640 89.7C661.3 88 682.7 95 704 98.3C725.3 101.7 746.7 101.3 768 98.5C789.3 95.7 810.7 90.3 832 87.7C853.3 85 874.7 85 896 84.2C917.3 83.3 938.7 81.7 949.3 80.8L960 80L960 0L949.3 0C938.7 0 917.3 0 896 0C874.7 0 853.3 0 832 0C810.7 0 789.3 0 768 0C746.7 0 725.3 0 704 0C682.7 0 661.3 0 640 0C618.7 0 597.3 0 576 0C554.7 0 533.3 0 512 0C490.7 0 469.3 0 448 0C426.7 0 405.3 0 384 0C362.7 0 341.3 0 320 0C298.7 0 277.3 0 256 0C234.7 0 213.3 0 192 0C170.7 0 149.3 0 128 0C106.7 0 85.3 0 64 0C42.7 0 21.3 0 10.7 0L0 0Z" fill="#22639e"/>
  <path d="M0 61L10.7 58C21.3 55 42.7 49 64 48.5C85.3 48 106.7 53 128 56.5C149.3 60 170.7 62 192 62.5C213.3 63 234.7 62 256 57.2C277.3 52.3 298.7 43.7 320 39.3C341.3 35 362.7 35 384 35.8C405.3 36.7 426.7 38.3 448 38C469.3 37.7 490.7 35.3 512 38C533.3 40.7 554.7 48.3 576 50.8C597.3 53.3 618.7 50.7 640 50.5C661.3 50.3 682.7 52.7 704 56.2C725.3 59.7 746.7 64.3 768 67.2C789.3 70 810.7 71 832 68.5C853.3 66 874.7 60 896 54.7C917.3 49.3 938.7 44.7 949.3 42.3L960 40L960 0L949.3 0C938.7 0 917.3 0 896 0C874.7 0 853.3 0 832 0C810.7 0 789.3 0 768 0C746.7 0 725.3 0 704 0C682.7 0 661.3 0 640 0C618.7 0 597.3 0 576 0C554.7 0 533.3 0 512 0C490.7 0 469.3 0 448 0C426.7 0 405.3 0 384 0C362.7 0 341.3 0 320 0C298.7 0 277.3 0 256 0C234.7 0 213.3 0 192 0C170.7 0 149.3 0 128 0C106.7 0 85.3 0 64 0C42.7 0 21.3 0 10.7 0L0 0Z" fill="#328dde"/>
</svg>