<?xml version="1.0" encoding="utf-8"?>
<svg id="visual" viewBox="0 0 960 540" width="960" height="540" xmlns="http://www.w3.org/2000/svg" version="1.1">
  <path d="M 0 303.77 L 16 313.47 C 32 323.07 64 342.47 96 362.97 C 128 383.47 160 405.07 192 405.97 C 224 406.77 256 386.77 288 390.77 C 320 394.77 352 422.77 384 428.07 C 416 433.47 448 416.07 480 388.57 C 512 361.07 544 323.47 576 303.97 C 608 284.47 640 283.07 672 296.97 C 704 310.77 736 339.77 768 355.27 C 800 370.77 832 372.77 864 364.27 C 896 355.77 928 336.77 944 327.27 L 960 317.77 L 960 547.77 L 944 547.77 C 928 547.77 896 547.77 864 547.77 C 832 547.77 800 547.77 768 547.77 C 736 547.77 704 547.77 672 547.77 C 640 547.77 608 547.77 576 547.77 C 544 547.77 512 547.77 480 547.77 C 448 547.77 416 547.77 384 547.77 C 352 547.77 320 547.77 288 547.77 C 256 547.77 224 547.77 192 547.77 C 160 547.77 128 547.77 96 547.77 C 64 547.77 32 547.77 16 547.77 L 0 547.77 L 0 303.77 Z" fill="#04192e"/>
  <path d="M 0 471.77 L 16 470.27 C 32 468.77 64 465.77 96 446.97 C 128 428.07 160 393.47 192 391.27 C 224 389.07 256 419.47 288 435.97 C 320 452.47 352 455.07 384 450.97 C 416 446.77 448 435.77 480 417.77 C 512 399.77 544 374.77 576 357.47 C 608 340.07 640 330.47 672 334.97 C 704 339.47 736 358.07 768 368.57 C 800 379.07 832 381.47 864 383.97 C 896 386.47 928 389.07 944 390.47 L 960 391.77 L 960 547.77 L 944 547.77 C 928 547.77 896 547.77 864 547.77 C 832 547.77 800 547.77 768 547.77 C 736 547.77 704 547.77 672 547.77 C 640 547.77 608 547.77 576 547.77 C 544 547.77 512 547.77 480 547.77 C 448 547.77 416 547.77 384 547.77 C 352 547.77 320 547.77 288 547.77 C 256 547.77 224 547.77 192 547.77 C 160 547.77 128 547.77 96 547.77 C 64 547.77 32 547.77 16 547.77 L 0 547.77 L 0 471.77 Z" fill="#0e3355"/>
  <path d="M 0 444.77 L 16 441.27 C 32 437.77 64 430.77 96 428.27 C 128 425.77 160 427.77 192 427.97 C 224 428.07 256 426.47 288 435.07 C 320 443.77 352 462.77 384 469.07 C 416 475.47 448 469.07 480 462.27 C 512 455.47 544 448.07 576 446.47 C 608 444.77 640 448.77 672 446.27 C 704 443.77 736 434.77 768 432.97 C 800 431.07 832 436.47 864 428.77 C 896 421.07 928 400.47 944 390.07 L 960 379.77 L 960 547.77 L 944 547.77 C 928 547.77 896 547.77 864 547.77 C 832 547.77 800 547.77 768 547.77 C 736 547.77 704 547.77 672 547.77 C 640 547.77 608 547.77 576 547.77 C 544 547.77 512 547.77 480 547.77 C 448 547.77 416 547.77 384 547.77 C 352 547.77 320 547.77 288 547.77 C 256 547.77 224 547.77 192 547.77 C 160 547.77 128 547.77 96 547.77 C 64 547.77 32 547.77 16 547.77 L 0 547.77 L 0 444.77 Z" fill="#1a4f80"/>
  <path d="M 0 419 L 16 431.7 C 32 444.3 64 469.7 96 472 C 128 474.3 160 453.7 192 455.3 C 224 457 256 481 288 479.5 C 320 478 352 451 384 439 C 416 427 448 430 480 440.7 C 512 451.3 544 469.7 576 469.5 C 608 469.3 640 450.7 672 443.8 C 704 437 736 442 768 438.3 C 800 434.7 832 422.3 864 425.2 C 896 428 928 446 944 455 L 960 464 L 960 542 L 944 542 C 928 542 896 542 864 542 C 832 542 800 542 768 542 C 736 542 704 542 672 542 C 640 542 608 542 576 542 C 544 542 512 542 480 542 C 448 542 416 542 384 542 C 352 542 320 542 288 542 C 256 542 224 542 192 542 C 160 542 128 542 96 542 C 64 542 32 542 16 542 L 0 542 L 0 419 Z" fill="#266dae"/>
  <path d="M 0 496.77 L 16 495.47 C 32 494.07 64 491.47 96 491.27 C 128 491.07 160 493.47 192 498.57 C 224 503.77 256 511.77 288 512.07 C 320 512.47 352 505.07 384 497.07 C 416 489.07 448 480.47 480 485.27 C 512 490.07 544 508.47 576 518.77 C 608 529.07 640 531.47 672 529.97 C 704 528.47 736 523.07 768 512.47 C 800 501.77 832 485.77 864 476.07 C 896 466.47 928 463.07 944 461.47 L 960 459.77 L 960 547.77 L 944 547.77 C 928 547.77 896 547.77 864 547.77 C 832 547.77 800 547.77 768 547.77 C 736 547.77 704 547.77 672 547.77 C 640 547.77 608 547.77 576 547.77 C 544 547.77 512 547.77 480 547.77 C 448 547.77 416 547.77 384 547.77 C 352 547.77 320 547.77 288 547.77 C 256 547.77 224 547.77 192 547.77 C 160 547.77 128 547.77 96 547.77 C 64 547.77 32 547.77 16 547.77 L 0 547.77 L 0 496.77 Z" fill="#328dde"/>
</svg>